<?xml version="1.0" encoding="iso-8859-1"?>
<!-- Generator: Adobe Illustrator 19.0.0, SVG Export Plug-In . SVG Version: 6.00 Build 0)  -->
<svg version="1.1" id="Layer_1" xmlns="http://www.w3.org/2000/svg" xmlns:xlink="http://www.w3.org/1999/xlink" x="0px" y="0px"
	 viewBox="0 0 488 488" style="enable-background:new 0 0 488 488;" xml:space="preserve">
<g transform="translate(0 -540.36)">
	<g>
		<g>
			<path d="M336,590.16c5.5,0,10-4.5,10-10v-29.8c0-5.5-4.5-10-10-10s-10,4.5-10,10v29.8C326,585.66,330.5,590.16,336,590.16z"/>
			<path d="M417.7,620.66c2.5,0,5.1-1,7-2.9l19.8-19.9c3.9-3.9,3.9-10.2,0-14.1c-3.9-3.9-10.2-3.9-14.1,0l-19.8,19.9
				c-3.9,3.9-3.9,10.2,0,14.1C412.6,619.66,415.1,620.66,417.7,620.66z"/>
			<path d="M424.7,767.06c-3.9-3.9-10.2-3.9-14.1,0c-3.9,3.9-3.9,10.2,0,14.1l19.8,19.8c2,1.9,4.5,2.9,7.1,2.9c2.6,0,5.2-0.9,7-2.9
				c3.9-3.9,3.9-10.2,0-14.1L424.7,767.06z"/>
			<path d="M478,672.46h-29.8c-5.5,0-10,4.5-10,10s4.5,10,10,10H478c5.5,0,10-4.5,10-10S483.5,672.46,478,672.46z"/>
			<path d="M247.2,617.76c2,1.9,4.5,2.9,7.1,2.9c2.6,0,5.1-1,7-2.9c3.9-3.9,3.9-10.2,0-14.1l-19.9-19.9c-3.9-3.9-10.2-3.9-14.1,0
				c-3.9,3.9-3.9,10.2,0,14.1L247.2,617.76z"/>
			<path d="M92.5,946.56v-40.5c0-5.5-4.5-10-10-10s-10,4.5-10,10v40.5c0,5.5,4.5,10,10,10C88.1,956.56,92.5,952.16,92.5,946.56z"/>
			<path d="M82.5,967.16c-16.9,0-30.6,13.7-30.6,30.6s13.7,30.6,30.6,30.6s30.6-13.7,30.6-30.6
				C113.1,980.86,99.4,967.16,82.5,967.16z M82.5,1008.36c-5.9,0-10.6-4.7-10.6-10.6c0-5.9,4.6-10.6,10.6-10.6s10.6,4.7,10.6,10.6
				C93.1,1003.66,88.5,1008.36,82.5,1008.36z"/>
			<path d="M255.5,946.56v-40.5c0-5.5-4.5-10-10-10s-10,4.5-10,10v40.5c0,5.5,4.5,10,10,10S255.5,952.16,255.5,946.56z"/>
			<path d="M245.1,967.16c-16.4,0-29.8,13.7-29.8,30.6s13.3,30.6,29.8,30.6c16.9,0,30.6-13.7,30.6-30.6
				C275.7,980.86,262,967.16,245.1,967.16z M245.1,1008.36c-5.3,0-9.8-4.9-9.8-10.6c0-5.7,4.5-10.6,9.8-10.6c6,0,10.6,4.7,10.6,10.6
				C255.7,1003.66,251.1,1008.36,245.1,1008.36z"/>
			<path d="M361.1,614.86L361.1,614.86c-18.2-5.9-37.8-4.8-55.2,3.1c-15.1,6.9-27.6,18.4-35.9,33c-14.3-5.8-29.9-9-46.3-9
				c-23.6,0-46.6,6.8-66.3,19.7c-17.2,11.2-31.2,26.4-41,44.5c-9.2-2.5-18.2-3.1-24.7-3.1c-24.5,0-47.5,9.4-64.8,26.5
				c-17.4,17.1-26.9,40-26.9,64.5c0,50.6,41.1,91.7,91.7,91.7h62.1v30.5c0,5.5,4.5,10,10,10s10-4.5,10-10v-30.5h49.9
				c64.1,0,116.9-49.7,121.8-112.6c35.9-3.4,65.6-31.7,70.5-68.6C422.1,664.76,398.5,626.26,361.1,614.86z M223.8,865.56
				L223.8,865.56l-132.1,0c-39.5,0-71.7-32.2-71.7-71.7c0-39.1,32.2-70.9,71.7-70.9c9.6,0,18.8,1.6,25.9,4.6c5,2.1,10.7-0.2,13-5.1
				c16.7-36.8,53.2-60.5,93.2-60.5c56.4,0,102.2,45.5,102.2,101.5C326,819.76,280.1,865.56,223.8,865.56z M396.3,701.56
				L396.3,701.56c0,0.1,0,0.1,0,0.2c-3.6,27-24.8,47.8-50.8,51.2c-3.4-39.2-25.6-73.2-57.6-92.9c13.8-23.3,41.5-34.4,67.1-26.1
				c0.1,0,0.1,0,0.2,0.1C383.2,642.46,400.9,671.46,396.3,701.56z"/>
			<path d="M164.2,936.66c-16.9,0-30.6,13.7-30.6,30.6c0,16.9,13.7,30.6,30.6,30.6c16.8,0,29.8-13.4,29.8-30.6
				C194,950.06,180.9,936.66,164.2,936.66z M164.2,977.76c-5.9,0-10.6-4.7-10.6-10.6c0-5.9,4.6-10.6,10.6-10.6
				c5.7,0,9.8,4.5,9.8,10.6S169.9,977.76,164.2,977.76z"/>
			<path d="M336.8,916.06v-40.5c0-5.5-4.5-10-10-10s-10,4.5-10,10v40.5c0,5.5,4.5,10,10,10C332.4,926.06,336.8,921.56,336.8,916.06z
				"/>
			<path d="M326.8,936.66c-16.9,0-30.6,13.7-30.6,30.6c0,16.9,13.7,30.6,30.6,30.6c16.9,0,30.6-13.7,30.6-30.6
				C357.4,950.36,343.7,936.66,326.8,936.66z M326.8,977.76c-5.9,0-10.6-4.7-10.6-10.6c0-5.9,4.6-10.6,10.6-10.6s10.6,4.7,10.6,10.6
				C337.4,973.06,332.8,977.76,326.8,977.76z"/>
		</g>
	</g>
</g>
<g>
</g>
<g>
</g>
<g>
</g>
<g>
</g>
<g>
</g>
<g>
</g>
<g>
</g>
<g>
</g>
<g>
</g>
<g>
</g>
<g>
</g>
<g>
</g>
<g>
</g>
<g>
</g>
<g>
</g>
</svg>
