<svg xmlns="http://www.w3.org/2000/svg" xmlns:xlink="http://www.w3.org/1999/xlink" version="1.1" id="Layer_1" x="0" y="0" viewBox="0 0 488 488" xml:space="preserve" enable-background="new 0 0 488 488">
  <path d="M409.14 198.8c-1.6-3.6-5.2-6-9.2-6h-138.4l105-177.8c1.9-3 1.9-6.9 0.1-10s-5.1-5-8.7-5h-184.9c-4.4 0-8.3 2.8-9.6 7l-85 275.2c-0.9 3-0.4 6.3 1.5 8.9 1.8 2.6 4.8 4.1 8 4.1h126.5l-78.8 178.8c-1.9 4.5-0.4 9.7 3.7 12.4 1.7 1.1 3.6 1.6 5.5 1.6 2.7 0 5.4-1.1 7.4-3.2l255.1-275.2C410.04 206.7 410.74 202.4 409.14 198.8zM178.14 427.5l61-138.3c1.3-3.1 1-6.7-0.8-9.5 -1.9-2.8-5-4.5-8.4-4.5h-128.4 0l78.8-255.1h160l-105 177.8c-1.9 3-1.9 6.9-0.1 10s5.1 5 8.7 5h133.1L178.14 427.5z"/>
</svg>
