<svg xmlns="http://www.w3.org/2000/svg" xmlns:xlink="http://www.w3.org/1999/xlink" version="1.1" id="Layer_1" x="0" y="0" viewBox="0 0 476.31 476.31" xml:space="preserve" enable-background="new 0 0 476.314 476.314" fill="#337e96">
  <g transform="translate(0 -540.36)">
    <path d="M472.73 706.42c-3.5-2.9-34.8-28.5-56.8-28.5 -13 0-23 8.1-31.9 15.3 -6.9 5.5-13.4 10.8-19.4 10.8 -5.4 0-11.6-5.1-18.2-10.5 -8.9-7.3-19-15.6-32.2-15.6 -13.1 0-22.9 8.2-31.6 15.4 -6.7 5.6-12.9 10.8-18.8 10.8 -6.1 0-12.6-5.3-19.5-11 -8.6-7.1-18.4-15.1-30.9-15.1 -13 0-23 8.1-31.9 15.3 -6.9 5.5-13.4 10.8-19.4 10.8 -5.9 0-12.2-5.3-18.8-10.8 -8.7-7.2-18.5-15.4-31.6-15.4 -13.1 0-22.9 8.2-31.6 15.4 -6.7 5.6-12.9 10.8-18.8 10.8 -10.6 0-32.7-14-45-23.9 -4.3-3.5-10.6-2.8-14.1 1.5s-2.8 10.6 1.5 14.1c3.6 2.9 35.7 28.4 57.6 28.4 13.1 0 22.9-8.2 31.6-15.4 6.7-5.6 12.9-10.8 18.8-10.8s12.2 5.3 18.8 10.8c8.7 7.2 18.5 15.4 31.6 15.4 13 0 23-8.1 31.9-15.3 6.9-5.5 13.4-10.8 19.4-10.8 5.4 0 11.6 5.1 18.2 10.5 8.9 7.3 19 15.6 32.2 15.6 13.1 0 22.9-8.2 31.6-15.4 6.7-5.6 12.9-10.8 18.8-10.8 6.1 0 12.6 5.3 19.5 11 8.6 7.1 18.4 15.1 30.9 15.1 13 0 23-8.1 31.9-15.3 6.9-5.5 13.4-10.8 19.4-10.8 10.5 0 32 13.9 43.9 23.8 1.9 1.5 4.1 2.3 6.4 2.3h0c2.9 0 5.7-1.2 7.8-3.6C477.53 716.22 476.93 709.92 472.73 706.42z"/>
    <path d="M3.73 618.32c3.6 2.9 35.7 28.4 57.6 28.4 13.1 0 22.9-8.2 31.6-15.4 6.7-5.6 12.9-10.8 18.8-10.8s12.2 5.3 18.8 10.8c8.7 7.2 18.5 15.4 31.6 15.4 13 0 23-8.1 31.9-15.3 6.9-5.5 13.4-10.8 19.4-10.8 5.4 0 11.6 5.1 18.2 10.5 8.9 7.3 19 15.6 32.2 15.6 13.1 0 22.9-8.2 31.6-15.4 6.7-5.6 12.9-10.8 18.8-10.8 6.1 0 12.6 5.3 19.5 11 8.6 7.1 18.4 15.1 30.9 15.1 13 0 23-8.1 31.9-15.3 6.9-5.5 13.4-10.8 19.4-10.8 10.5 0 32 13.9 43.9 23.8 1.9 1.5 4.1 2.3 6.4 2.3h0c2.9 0 5.7-1.2 7.8-3.6 3.5-4.3 2.9-10.6-1.3-14.1 -3.5-3-34.8-28.5-56.8-28.5 -13 0-23 8.1-31.9 15.3 -6.9 5.5-13.4 10.8-19.4 10.8 -5.4 0-11.6-5.1-18.2-10.5 -8.9-7.3-19-15.6-32.2-15.6 -13.1 0-22.9 8.2-31.6 15.4 -6.7 5.6-12.9 10.8-18.8 10.8 -6.1 0-12.6-5.3-19.5-11 -8.6-7.1-18.4-15.1-30.9-15.1 -13 0-23 8.1-31.9 15.3 -6.9 5.5-13.4 10.8-19.4 10.8 -5.9 0-12.2-5.3-18.8-10.8 -8.7-7.2-18.5-15.4-31.6-15.4 -13.1 0-22.9 8.2-31.6 15.4 -6.7 5.6-12.9 10.8-18.8 10.8 -10.6 0-32.7-14-45-23.9 -4.3-3.5-10.6-2.8-14.1 1.5S-0.57 614.82 3.73 618.32z"/>
    <path d="M472.73 861.32c-3.5-2.9-34.8-28.5-56.8-28.5 -13 0-23 8.1-31.9 15.3 -6.9 5.5-13.4 10.8-19.4 10.8 -5.4 0-11.6-5.1-18.2-10.5 -8.9-7.3-19-15.6-32.2-15.6 -13.1 0-22.9 8.2-31.6 15.4 -6.7 5.6-12.9 10.8-18.8 10.8 -6.1 0-12.6-5.3-19.5-11 -8.6-7.1-18.4-15.1-30.9-15.1 -13 0-23 8.1-31.9 15.3 -6.9 5.5-13.4 10.8-19.4 10.8 -5.9 0-12.2-5.3-18.8-10.8 -8.7-7.2-18.5-15.4-31.6-15.4 -13.1 0-22.9 8.2-31.6 15.4 -6.7 5.6-12.9 10.8-18.8 10.8 -10.6 0-32.7-14-45-23.9 -4.3-3.5-10.6-2.8-14.1 1.5s-2.8 10.6 1.5 14.1c3.6 2.9 35.7 28.4 57.6 28.4 13.1 0 22.9-8.2 31.6-15.4 6.7-5.6 12.9-10.8 18.8-10.8s12.2 5.3 18.8 10.8c8.7 7.2 18.5 15.4 31.6 15.4 13 0 23-8.1 31.9-15.3 6.9-5.5 13.4-10.8 19.4-10.8 5.4 0 11.6 5.1 18.2 10.5 8.9 7.3 19 15.6 32.2 15.6 13.1 0 22.9-8.2 31.6-15.4 6.7-5.6 12.9-10.8 18.8-10.8 6.1 0 12.6 5.3 19.5 11 8.6 7.1 18.4 15.1 30.9 15.1 13 0 23-8.1 31.9-15.3 6.9-5.5 13.4-10.8 19.4-10.8 10.5 0 32 13.9 43.9 23.8 1.9 1.5 4.1 2.3 6.4 2.3h0c2.9 0 5.7-1.2 7.8-3.6C477.53 871.12 476.93 864.82 472.73 861.32z"/>
    <path d="M472.73 783.92c-3.5-2.9-34.8-28.5-56.8-28.5 -13 0-23 8.1-31.9 15.3 -6.9 5.5-13.4 10.8-19.4 10.8 -5.4 0-11.6-5.1-18.2-10.5 -8.9-7.3-19-15.6-32.2-15.6 -13.1 0-22.9 8.2-31.6 15.4 -6.7 5.6-12.9 10.8-18.8 10.8 -6.1 0-12.6-5.3-19.5-11 -8.6-7.1-18.4-15.1-30.9-15.1 -13 0-23 8.1-31.9 15.3 -6.9 5.5-13.4 10.8-19.4 10.8 -5.9 0-12.2-5.3-18.8-10.8 -8.7-7.2-18.5-15.4-31.6-15.4 -13.1 0-22.9 8.2-31.6 15.4 -6.7 5.6-12.9 10.8-18.8 10.8 -10.6 0-32.7-14-45-23.9 -4.3-3.5-10.6-2.8-14.1 1.5s-2.8 10.6 1.5 14.1c3.6 2.9 35.7 28.4 57.6 28.4 13.1 0 22.9-8.2 31.6-15.4 6.7-5.6 12.9-10.8 18.8-10.8s12.2 5.3 18.8 10.8c8.7 7.2 18.5 15.4 31.6 15.4 13 0 23-8.1 31.9-15.3 6.9-5.5 13.4-10.8 19.4-10.8 5.4 0 11.6 5.1 18.2 10.5 8.9 7.3 19 15.6 32.2 15.6 13.1 0 22.9-8.2 31.6-15.4 6.7-5.6 12.9-10.8 18.8-10.8 6.1 0 12.6 5.3 19.5 11 8.6 7.1 18.4 15.1 30.9 15.1 13 0 23-8.1 31.9-15.3 6.9-5.5 13.4-10.8 19.4-10.8 10.5 0 32 13.9 43.9 23.8 1.9 1.5 4.1 2.3 6.4 2.3h0c2.9 0 5.7-1.3 7.8-3.6C477.53 793.72 476.93 787.42 472.73 783.92z"/>
    <path d="M472.73 938.82c-3.5-3-34.8-28.5-56.8-28.5 -13 0-23 8.1-31.9 15.3 -6.9 5.5-13.4 10.8-19.4 10.8 -5.4 0-11.6-5.1-18.2-10.5 -8.9-7.3-19-15.6-32.2-15.6 -13.1 0-22.9 8.2-31.6 15.4 -6.7 5.6-12.9 10.8-18.8 10.8 -6.1 0-12.6-5.3-19.5-11 -8.6-7.1-18.4-15.1-30.9-15.1 -13 0-23 8.1-31.9 15.3 -6.9 5.5-13.4 10.8-19.4 10.8 -5.9 0-12.2-5.3-18.8-10.8 -8.7-7.2-18.5-15.4-31.6-15.4 -13.1 0-22.9 8.2-31.6 15.4 -6.7 5.6-12.9 10.8-18.8 10.8 -10.6 0-32.7-14-45-23.9 -4.3-3.5-10.6-2.8-14.1 1.5s-2.8 10.6 1.5 14.1c3.6 2.9 35.7 28.4 57.6 28.4 13.1 0 22.9-8.2 31.6-15.4 6.7-5.6 12.9-10.8 18.8-10.8s12.2 5.3 18.8 10.8c8.7 7.2 18.5 15.4 31.6 15.4 13 0 23-8.1 31.9-15.3 6.9-5.5 13.4-10.8 19.4-10.8 5.4 0 11.6 5.1 18.2 10.5 8.9 7.3 19 15.6 32.2 15.6 13.1 0 22.9-8.2 31.6-15.4 6.7-5.6 12.9-10.8 18.8-10.8 6.1 0 12.6 5.3 19.5 11 8.6 7.1 18.4 15.1 30.9 15.1 13 0 23-8.1 31.9-15.3 6.9-5.5 13.4-10.8 19.4-10.8 10.5 0 32 13.9 43.9 23.8 1.9 1.5 4.1 2.3 6.4 2.3h0c2.9 0 5.7-1.2 7.8-3.6C477.53 948.62 476.93 942.32 472.73 938.82z"/>
  </g>
</svg>
