<?xml version="1.0" encoding="iso-8859-1"?>
<!-- Generator: Adobe Illustrator 19.0.0, SVG Export Plug-In . SVG Version: 6.00 Build 0)  -->
<svg version="1.1" id="Layer_1" xmlns="http://www.w3.org/2000/svg" xmlns:xlink="http://www.w3.org/1999/xlink" x="0px" y="0px"
	 viewBox="0 0 488 488" style="enable-background:new 0 0 488 488;" xml:space="preserve">
<g transform="translate(0 -540.36)">
	<g>
		<g>
			<polygon points="356.4,824.61 356.4,824.61 356.4,824.61 			"/>
			<path d="M305.6,708.31c-38.1-21.7-85-21.6-122.3,0c-38.1,21.6-61.7,62.3-61.7,106.3c0,2.7,1.1,5.2,3,7.1c1.8,1.9,4.4,2.9,7,2.9
				c0.1,0,0.1,0,0.1,0l112.3-0.8l112.4,0.8c2.7,0,5.2-1,7.1-2.9c1.9-1.9,3-4.4,3-7.1C366.5,770.81,343.2,730.11,305.6,708.31z
				 M244,803.91l-102,0.7c3.2-32.9,22.2-62.5,51.1-78.9c31.3-18.1,70.5-18.1,102.4,0c28.5,16.6,47.2,46.2,50.4,78.9L244,803.91z"/>
			<path d="M244,640.31c5.5,0,10-4.5,10-10v-50.7c0-5.5-4.5-10-10-10s-10,4.5-10,10v50.7C234,635.81,238.5,640.31,244,640.31z"/>
			<path d="M424.6,647.31c3.9-3.9,3.9-10.2,0-14.1c-3.9-3.9-10.2-3.9-14.1,0l-41.3,41.5c-3.9,3.9-3.9,10.2,0,14.1
				c2,1.9,4.5,2.9,7.1,2.9c2.6,0,5.1-0.9,7-2.9L424.6,647.31z"/>
			<path d="M118.7,674.71l-41.3-41.5c-3.9-3.9-10.2-3.9-14.1,0c-3.9,3.9-3.9,10.2,0,14.1l41.3,41.5c2,1.9,4.5,2.9,7.1,2.9
				c2.6,0,5.1-0.9,7-2.9C122.6,684.91,122.6,678.61,118.7,674.71z"/>
			<path d="M478,804.61h-50.5c-5.5,0-10,4.5-10,10s4.5,10,10,10H478c5.5,0,10-4.5,10-10S483.5,804.61,478,804.61z"/>
			<path d="M70.5,814.61c0-5.5-4.5-10-10-10H10c-5.5,0-10,4.5-10,10s4.5,10,10,10h50.5C66,824.61,70.5,820.11,70.5,814.61z"/>
			<path d="M175.7,879.11l-20.6,20.7c-3.9,3.9-3.9,10.2,0,14.1c2,1.9,4.5,2.9,7.1,2.9c2.5,0,5.1-0.9,7-2.9l20.6-20.7
				c3.9-3.9,3.9-10.2,0-14.1C185.9,875.21,179.6,875.21,175.7,879.11z"/>
			<path d="M338.5,879.21l-19.9,20.7c-3.8,3.9-3.7,10.3,0.3,14.1c1.9,1.9,4.4,2.8,6.9,2.8c2.7,0,5.3-1,7.2-3.1l19.9-20.7
				c3.8-3.9,3.7-10.3-0.3-14.1C348.7,875.11,342.3,875.21,338.5,879.21z"/>
			<path d="M420.4,879.11l-20.6,20.7c-3.9,3.9-3.9,10.2,0,14.1c2,1.9,4.5,2.9,7.1,2.9c2.5,0,5.1-0.9,7-2.9l20.6-20.7
				c3.9-3.9,3.9-10.2,0-14.1C430.6,875.21,424.3,875.21,420.4,879.11z"/>
			<path d="M93.8,879.21l-19.9,20.7c-3.8,3.9-3.7,10.3,0.3,14.1c1.9,1.9,4.4,2.8,6.9,2.8c2.6,0,5.3-1,7.2-3.1l19.9-20.7
				c3.8-3.9,3.7-10.3-0.3-14.1C104,875.11,97.6,875.21,93.8,879.21z"/>
			<path d="M318.8,951.21l-20.6,20c-3.9,3.8-4,10.1-0.2,14.1c2,2,4.6,3,7.2,3c2.5,0,5-0.9,6.9-2.8l20.6-20c3.9-3.8,4-10.1,0.2-14.1
				C329.1,947.51,322.8,947.41,318.8,951.21z"/>
			<path d="M399.8,951.31l-19.9,20c-3.9,3.9-3.9,10.2,0,14.1c2,1.9,4.5,2.9,7.1,2.9c2.6,0,5.1-1,7-2.9l19.9-20
				c3.9-3.9,3.9-10.2,0-14.1C410,947.41,403.7,947.41,399.8,951.31z"/>
			<path d="M155.1,951.31l-19.9,20c-3.9,3.9-3.9,10.2,0,14.1c2,1.9,4.5,2.9,7.1,2.9c2.6,0,5.1-1,7-2.9l19.9-20
				c3.9-3.9,3.9-10.2,0-14.1C165.3,947.41,159,947.41,155.1,951.31z"/>
			<path d="M272.9,917.71l-34.7,5.7l34.1-40.9c3.5-4.3,2.9-10.6-1.3-14.1c-4.3-3.5-10.6-2.9-14.1,1.3l-51.2,61.5
				c-2.7,3.2-3.1,7.8-1,11.4c2.1,3.6,6.2,5.6,10.3,4.9l34.7-5.7l-34.1,40.9c-3.5,4.3-2.9,10.6,1.3,14.1c1.9,1.5,4.1,2.3,6.4,2.3h0
				c2.9-0.1,5.8-1.3,7.7-3.6l51.2-61.5c2.7-3.2,3.1-7.8,1-11.4C281.1,919.01,277,917.01,272.9,917.71z"/>
			<path d="M74.1,951.21l-20.6,20c-3.9,3.8-4,10.1-0.2,14.1c2,2,4.6,3,7.2,3c2.5,0,5-0.9,6.9-2.8l20.6-20c3.9-3.8,4-10.1,0.2-14.1
				C84.4,947.51,78.1,947.41,74.1,951.21z"/>
		</g>
	</g>
</g>
<g>
</g>
<g>
</g>
<g>
</g>
<g>
</g>
<g>
</g>
<g>
</g>
<g>
</g>
<g>
</g>
<g>
</g>
<g>
</g>
<g>
</g>
<g>
</g>
<g>
</g>
<g>
</g>
<g>
</g>
</svg>
