<svg xmlns="http://www.w3.org/2000/svg" xmlns:xlink="http://www.w3.org/1999/xlink" version="1.1" id="Layer_1" x="0" y="0" viewBox="0 0 488 488" xml:space="preserve" enable-background="new 0 0 488 488">
  <g transform="translate(0 -540.36)">
    <path d="M10.03 622.15c2.6 0 5.1-0.9 7-2.9l61.8-61.8c3.9-3.9 3.9-10.2 0-14.1 -3.9-3.9-10.2-3.9-14.1 0l-61.8 61.8c-3.9 3.9-3.9 10.2 0 14.1C4.93 621.15 7.43 622.15 10.03 622.15z"/>
    <path d="M145.73 622.15c2.6 0 5.1-0.9 7-2.9l61.8-61.8c3.9-3.9 3.9-10.2 0-14.1 -3.9-3.9-10.2-3.9-14.1 0l-61.8 61.8c-3.9 3.9-3.9 10.2 0 14.1C140.63 621.15 143.13 622.15 145.73 622.15z"/>
    <path d="M281.43 622.15c2.6 0 5.2-0.9 7.1-3l60.9-61.8c3.9-3.9 3.8-10.2-0.1-14.1 -3.9-3.9-10.2-3.8-14.1 0.1l-60.9 61.8c-3.9 3.9-3.8 10.2 0.1 14.1C276.33 621.15 278.93 622.15 281.43 622.15z"/>
    <path d="M416.23 622.15c2.5 0 5.1-0.9 7-2.9l61.8-61.8c3.9-3.9 3.9-10.2 0-14.1 -3.9-3.9-10.2-3.9-14.1 0l-61.8 61.8c-3.9 3.9-3.9 10.2 0 14.1C411.13 621.15 413.63 622.15 416.23 622.15z"/>
    <path d="M64.72 754.95c2 1.9 4.5 2.9 7.1 2.9 2.6 0 5.2-0.9 7-2.9l61.8-61.8c3.9-3.9 3.9-10.2 0-14.1 -3.9-3.9-10.2-3.9-14.1 0l-61.8 61.8C60.83 744.75 60.83 751.05 64.72 754.95z"/>
    <path d="M200.53 754.95c1.9 1.9 4.5 2.9 7 2.9h0c2.6 0 5.2-1 7.1-3l60.9-61.8c3.9-3.9 3.8-10.2-0.1-14.1 -3.9-3.9-10.2-3.8-14.1 0.1l-60.9 61.8C196.53 744.75 196.63 751.05 200.53 754.95z"/>
    <path d="M335.23 754.95c2 1.9 4.5 2.9 7.1 2.9 2.6 0 5.1-0.9 7-2.9l61.8-61.8c3.9-3.9 3.9-10.2 0-14.1 -3.9-3.9-10.2-3.9-14.1 0l-61.8 61.8C331.33 744.75 331.33 751.05 335.23 754.95z"/>
    <path d="M78.93 814.75c-3.8-3.9-10.2-4-14.1-0.1l-61.8 60.9c-3.9 3.8-4 10.2-0.1 14.1 1.9 2 4.5 3 7.1 3 2.5 0 5.1-0.9 7-2.9l61.8-60.9C82.73 825.05 82.73 818.65 78.93 814.75z"/>
    <path d="M214.63 814.75c-3.8-3.9-10.2-4-14.1-0.1l-61.8 60.9c-3.9 3.8-4 10.2-0.1 14.1 1.9 2 4.5 3 7.1 3 2.5 0 5.1-0.9 7-2.9l61.8-60.9C218.43 825.05 218.43 818.65 214.63 814.75z"/>
    <path d="M349.33 814.75c-3.9-3.9-10.2-3.9-14.1 0l-60.9 60.9c-3.9 3.9-3.9 10.2 0 14.1 2 1.9 4.5 2.9 7.1 2.9 2.5 0 5.1-1 7-2.9l60.9-60.9C353.23 824.95 353.23 818.65 349.33 814.75z"/>
    <path d="M485.13 814.75c-3.8-3.9-10.2-4-14.1-0.1l-61.8 60.9c-3.9 3.8-4 10.2-0.1 14.1 1.9 2 4.5 3 7.1 3 2.5 0 5-0.9 7-2.9l61.8-60.9C488.93 825.05 489.03 818.65 485.13 814.75z"/>
    <path d="M126.53 949.55l-61.8 61.8c-3.9 3.9-3.9 10.2 0 14.1 2 1.9 4.5 2.9 7.1 2.9 2.6 0 5.2-1 7-2.9l61.8-61.8c3.9-3.9 3.9-10.2 0-14.1C136.73 945.65 130.43 945.65 126.53 949.55z"/>
    <path d="M261.33 949.55l-60.9 61.8c-3.9 3.9-3.8 10.2 0.1 14.1 1.9 1.9 4.5 2.9 7 2.9h0c2.6 0 5.2-1 7.1-3l60.9-61.8c3.9-3.9 3.8-10.2-0.1-14.1C271.52 945.55 265.23 945.65 261.33 949.55z"/>
    <path d="M397.03 949.55l-61.8 61.8c-3.9 3.9-3.9 10.2 0 14.1 2 1.9 4.5 2.9 7.1 2.9 2.6 0 5.1-1 7-2.9l61.8-61.8c3.9-3.9 3.9-10.2 0-14.1C407.23 945.65 400.93 945.65 397.03 949.55z"/>
  </g>
</svg>
