<svg xmlns="http://www.w3.org/2000/svg" xmlns:xlink="http://www.w3.org/1999/xlink" version="1.1" id="Layer_1" x="0" y="0" viewBox="0 0 488 488" xml:space="preserve" enable-background="new 0 0 488 488">
  <g transform="translate(0 -540.36)">
    <path d="M278.9 867.36l-12.6-6.3 12.6-6.3c4.9-2.5 6.9-8.5 4.5-13.4 -2.5-4.9-8.5-6.9-13.4-4.5l-16 8v-18.9c0-5.5-4.5-10-10-10s-10 4.5-10 10v18.9l-16-8c-4.9-2.5-10.9-0.5-13.4 4.5 -2.5 4.9-0.5 10.9 4.5 13.4l12.6 6.3 -12.6 6.3c-4.9 2.5-6.9 8.5-4.5 13.4 1.8 3.5 5.3 5.5 8.9 5.5 1.5 0 3-0.3 4.5-1.1l16-8v18.9c0 5.5 4.5 10 10 10s10-4.5 10-10v-18.9l16 8c1.4 0.7 3 1.1 4.5 1.1 3.7 0 7.2-2 8.9-5.5C285.9 875.76 283.9 869.76 278.9 867.36z"/>
    <path d="M118.9 841.36c-2.5-4.9-8.5-6.9-13.4-4.5l-16 8v-18.9c0-5.5-4.5-10-10-10s-10 4.5-10 10v18.9l-16-8c-4.9-2.5-10.9-0.5-13.4 4.5 -2.5 4.9-0.5 10.9 4.5 13.4l12.6 6.3 -12.6 6.3c-4.9 2.5-6.9 8.5-4.5 13.4 1.8 3.5 5.3 5.5 8.9 5.5 1.5 0 3-0.3 4.5-1.1l16-8v18.9c0 5.5 4.5 10 10 10s10-4.5 10-10v-18.9l16 8c1.4 0.7 3 1.1 4.5 1.1 3.7 0 7.2-2 8.9-5.5 2.4-5 0.4-11-4.5-13.4l-12.6-6.3 12.6-6.3C119.3 852.26 121.3 846.26 118.9 841.36z"/>
    <path d="M443.4 867.26l-12.7-6.3 12.7-6.3c4.9-2.5 7-8.5 4.5-13.4s-8.5-7-13.4-4.5l-16.4 8.1v-19c0-5.5-4.5-10-10-10s-10 4.5-10 10v19l-16.4-8.1c-4.9-2.5-10.9-0.4-13.4 4.5s-0.4 10.9 4.5 13.4l12.7 6.3 -12.7 6.3c-4.9 2.5-7 8.5-4.5 13.4 1.7 3.5 5.3 5.6 9 5.6 1.5 0 3-0.3 4.4-1l16.4-8.1v19c0 5.5 4.5 10 10 10s10-4.5 10-10v-19l16.4 8.1c1.4 0.7 2.9 1 4.4 1 3.7 0 7.2-2 9-5.6C450.4 875.76 448.4 869.76 443.4 867.26z"/>
    <path d="M201.7 963.46c-2.5-4.9-8.4-7-13.4-4.5l-16.4 8.1v-19c0-5.5-4.5-10-10-10s-10 4.5-10 10v19l-16.4-8.1c-4.9-2.5-10.9-0.4-13.4 4.5s-0.4 10.9 4.5 13.4l12.7 6.3 -12.7 6.3c-4.9 2.5-7 8.5-4.5 13.4 1.7 3.5 5.3 5.6 9 5.6 1.5 0 3-0.3 4.4-1l16.4-8.1v19c0 5.5 4.5 10 10 10s10-4.5 10-10v-19l16.4 8.1c1.4 0.7 2.9 1 4.4 1 3.7 0 7.2-2 9-5.6 2.5-5 0.4-11-4.5-13.4v0l-12.7-6.3 12.7-6.3C202.1 974.36 204.2 968.36 201.7 963.46z"/>
    <path d="M365.9 963.46c-2.5-4.9-8.5-6.9-13.4-4.5l-16 8v-18.9c0-5.5-4.5-10-10-10s-10 4.5-10 10v18.9l-16-8c-4.9-2.5-10.9-0.5-13.4 4.5 -2.5 4.9-0.5 10.9 4.5 13.4l12.6 6.3 -12.6 6.3c-4.9 2.5-6.9 8.5-4.5 13.4 1.8 3.5 5.3 5.5 8.9 5.5 1.5 0 3-0.3 4.5-1.1l16-8v18.9c0 5.5 4.5 10 10 10s10-4.5 10-10v-18.9l16 8c1.4 0.7 3 1.1 4.5 1.1 3.7 0 7.2-2 8.9-5.5 2.4-4.9 0.4-10.9-4.5-13.4v0l-12.6-6.3 12.6-6.3C366.3 974.36 368.3 968.36 365.9 963.46z"/>
    <path d="M161.9 784.76h133.4c67.9 0 123.3-54.9 123.3-122.2 0-67.4-55.3-122.2-123.3-122.2 -45 0-86.6 25.1-108.3 64.8 -8.3-2.5-16.9-3.8-25.1-3.8 -51 0-92.5 41.1-92.5 91.7C69.4 743.66 110.9 784.76 161.9 784.76zM161.9 621.36L161.9 621.36c8.5 0 18 1.9 26.2 5.4 5 2 10.7-0.2 12.9-5.1 17-37.2 54-61.3 94.2-61.3 57 0 103.3 45.8 103.3 102.2 0 56.3-46.3 102.2-103.3 102.2H161.9c-40 0-72.5-32.2-72.5-71.7S121.9 621.36 161.9 621.36z"/>
  </g>
</svg>
