<svg xmlns="http://www.w3.org/2000/svg" xmlns:xlink="http://www.w3.org/1999/xlink" version="1.1" id="Layer_1" x="0" y="0" viewBox="0 0 488 488" xml:space="preserve" enable-background="new 0 0 488 488" fill="#337e96">
  <g transform="translate(0 -540.36)">
    <path d="M244 651.96c-73 0-132.4 59.4-132.4 132.4S171 916.76 244 916.76s132.4-59.4 132.4-132.4S317 651.96 244 651.96zM244 896.76c-62 0-112.4-50.4-112.4-112.4S182 671.96 244 671.96s112.4 50.4 112.4 112.4S306 896.76 244 896.76z"/>
    <path d="M244 610.86c5.5 0 10-4.5 10-10v-50.5c0-5.5-4.5-10-10-10s-10 4.5-10 10v50.5C234 606.36 238.5 610.86 244 610.86z"/>
    <path d="M244 957.86c-5.5 0-10 4.5-10 10v50.5c0 5.5 4.5 10 10 10s10-4.5 10-10v-50.5C254 962.36 249.5 957.86 244 957.86z"/>
    <path d="M376.3 662.06c2.6 0 5.1-1 7-2.9l41.3-41.3c3.9-3.9 3.9-10.2 0-14.1 -3.9-3.9-10.2-3.9-14.1 0l-41.3 41.3c-3.9 3.9-3.9 10.2 0 14.1C371.2 661.06 373.7 662.06 376.3 662.06z"/>
    <path d="M104.6 659.16c2 1.9 4.5 2.9 7.1 2.9 2.6 0 5.1-1 7-2.9 3.9-3.9 3.9-10.2 0-14.1l-41.3-41.3c-3.9-3.9-10.2-3.9-14.1 0 -3.9 3.9-3.9 10.2 0 14.1L104.6 659.16z"/>
    <path d="M383.3 909.66c-3.9-3.9-10.2-3.9-14.1 0 -3.9 3.9-3.9 10.2 0 14.1l41.3 41.3c2 1.9 4.5 2.9 7.1 2.9 2.5 0 5.1-1 7-2.9 3.9-3.9 3.9-10.2 0-14.1L383.3 909.66z"/>
    <path d="M104.6 909.66l-41.3 41.3c-3.9 3.9-3.9 10.2 0 14.1 2 1.9 4.5 2.9 7.1 2.9 2.6 0 5.1-1 7-2.9l41.3-41.3c3.9-3.9 3.9-10.2 0-14.1S108.5 905.76 104.6 909.66z"/>
    <path d="M478 774.36h-50.5c-5.5 0-10 4.5-10 10s4.5 10 10 10H478c5.5 0 10-4.5 10-10S483.5 774.36 478 774.36z"/>
    <path d="M70.5 784.36c0-5.5-4.5-10-10-10H10c-5.5 0-10 4.5-10 10s4.5 10 10 10h50.5C66 794.36 70.5 789.86 70.5 784.36z"/>
  </g>
</svg>
