<svg xmlns="http://www.w3.org/2000/svg" xmlns:xlink="http://www.w3.org/1999/xlink" version="1.1" id="Layer_1" x="0" y="0" viewBox="0 0 488 488" xml:space="preserve" enable-background="new 0 0 488 488" fill="#337e96">
  <g transform="translate(0 -540.36)">
    <path d="M45.1 945.21c4.7 3.7 28.9 22.1 46.7 22.1 11.2 0 19.5-6.5 26.9-12.2 5.1-4 9.9-7.7 13.6-7.7 4.2 0 9.2 3.8 14.5 7.9 7.3 5.6 15.7 12 26.7 12 11.1 0 19.2-6.4 26.4-12.1 5-4 9.8-7.8 14-7.8 4.1 0 8.9 3.8 14 7.8 7.2 5.7 15.3 12.1 26.4 12.1 11 0 19.4-6.4 26.7-12 5.3-4.1 10.3-7.9 14.5-7.9 3.8 0 8.5 3.8 13.6 7.7 7.4 5.7 15.7 12.2 26.9 12.2 17.8 0 42-18.4 46.4-22.1 4.4-3.4 5.1-9.7 1.7-14 -3.4-4.4-9.7-5.1-14-1.7 -9.4 7.4-26.2 17.8-34.3 17.8 -4.3 0-9.3-3.9-14.6-8 -7.1-5.6-15.2-11.9-25.8-11.9 -11 0-19.4 6.4-26.7 12 -5.3 4.1-10.3 7.9-14.5 7.9 -4.1 0-8.9-3.8-14-7.8 -7.2-5.7-15.3-12.1-26.4-12.1 -11.1 0-19.2 6.4-26.4 12.1 -5 4-9.8 7.8-14 7.8 -4.2 0-9.2-3.8-14.5-7.9 -7.3-5.6-15.7-12-26.7-12 -10.6 0-18.7 6.3-25.8 11.9 -5.3 4.1-10.3 8-14.6 8 -8.1 0-24.9-10.4-34.3-17.8 -4.3-3.4-10.6-2.6-14 1.7C40 935.51 40.8 941.81 45.1 945.21z"/>
    <path d="M370.3 980.21c-9 7.4-26.1 18.4-34.1 18.4 -4.2 0-9.2-4-14.5-8.3 -7.2-5.8-15.3-12.4-26-12.4 -11.1 0-19.4 6.6-26.8 12.5 -5.3 4.2-10.3 8.2-14.4 8.2 -4.1 0-8.8-4-13.9-8.1 -7.2-5.9-15.4-12.6-26.6-12.6 -11.2 0-19.4 6.7-26.6 12.6 -5.1 4.2-9.8 8.1-13.9 8.1 -4.2 0-9.1-4-14.4-8.2 -7.3-5.9-15.7-12.5-26.8-12.5 -10.7 0-18.8 6.6-26 12.4 -5.3 4.3-10.3 8.3-14.5 8.3 -8 0-24.8-10.8-34.1-18.4 -4.3-3.5-10.6-2.9-14.1 1.4s-2.9 10.6 1.4 14.1c4.7 3.8 28.9 22.9 46.8 22.9 11.2 0 19.6-6.8 27-12.8 4.8-3.9 9.8-7.9 13.4-7.9 4.2 0 9.1 4 14.4 8.2 7.3 5.9 15.7 12.5 26.8 12.5 11.2 0 19.4-6.7 26.6-12.6 5.1-4.2 9.8-8.1 13.9-8.1s8.8 4 13.9 8.1c7.2 5.9 15.4 12.6 26.6 12.6 11.1 0 19.4-6.6 26.8-12.5 5.3-4.2 10.3-8.2 14.4-8.2 3.6 0 8.6 4 13.4 7.9 7.3 6 15.7 12.8 27 12.8h0c17.9 0 42.1-19.2 47-22.9 4.3-3.5 4.9-9.8 1.4-14.1C380.9 977.31 374.6 976.71 370.3 980.21z"/>
    <path d="M405.6 660.11L405.6 660.11c-9.7-16.4-24.8-28.9-42.6-35.2 -0.1 0-0.2-0.1-0.3-0.1 -18.1-5.9-37.7-5.1-55.2 2.4 -15.9 6.8-29.1 18.6-37.8 33.6 -14.2-5.8-29.7-9-46-9 -23.6 0-46.6 6.8-66.3 19.7 -17.2 11.2-31.2 26.5-41 44.6 -9.2-2.5-18.2-3.1-24.7-3.1 -24.5 0-47.5 9.4-64.8 26.5C9.5 756.71 0 779.61 0 804.11c0 50.7 41.1 91.9 91.7 91.9h132.1c64.2 0 116.9-49.8 121.9-112.9 16.1-1.6 31.4-8.2 43.8-19.1 14.3-12.5 23.7-29.8 26.7-48.8C419 696.21 415.3 676.61 405.6 660.11zM223.8 876.11H91.7c-39.5 0-71.7-32.3-71.7-71.9 0-39.2 32.2-71.1 71.7-71.1 9.6 0 18.8 1.6 25.9 4.6 5 2.1 10.7-0.2 13-5.1 16.7-36.9 53.2-60.7 93.2-60.7 56.4 0 102.2 45.6 102.2 101.7C326 830.11 280.1 876.11 223.8 876.11zM396.4 712.41L396.4 712.41c-4.1 26.7-25.4 47.4-50.8 50.7 -3.4-39.4-25.7-73.5-57.9-93.3 14.2-23.7 42.3-34.7 68.8-26.1C384.1 653.71 400.9 682.61 396.4 712.41z"/>
    <path d="M336 599.91c5.5 0 10-4.5 10-10v-29.8c0-5.5-4.5-10-10-10s-10 4.5-10 10v29.8C326 595.41 330.5 599.91 336 599.91z"/>
    <path d="M417.7 630.51c2.6 0 5.1-1 7-2.9l19.8-19.9c3.9-3.9 3.9-10.2 0-14.1 -3.9-3.9-10.2-3.9-14.1 0l-19.8 19.9c-3.9 3.9-3.9 10.2 0 14.1C412.6 629.51 415.1 630.51 417.7 630.51z"/>
    <path d="M424.7 777.31c-3.9-3.9-10.2-3.9-14.1 0 -3.9 3.9-3.9 10.2 0 14.1l19.8 19.9c2 1.9 4.5 2.9 7.1 2.9 2.6 0 5.1-1 7-2.9 3.9-3.9 3.9-10.2 0-14.1L424.7 777.31z"/>
    <path d="M478 682.51h-29.8c-5.5 0-10 4.5-10 10s4.5 10 10 10H478c5.5 0 10-4.5 10-10S483.5 682.51 478 682.51z"/>
    <path d="M247.2 627.61c2 1.9 4.5 2.9 7.1 2.9 2.6 0 5.1-1 7-2.9 3.9-3.9 3.9-10.2 0-14.1l-19.9-19.9c-3.9-3.9-10.2-3.9-14.1 0 -3.9 3.9-3.9 10.2 0 14.1L247.2 627.61z"/>
  </g>
</svg>
